# xmcd
#
# Track frame offsets:
#	150
#	19752
#	35087
#	46141
#	60624
#	73708
#	87037
#	101228
#	123602
#	138974
#	164898
#	183665
#	207037
#	227658
#	241618
#
# Disc length: 3443 seconds
#
# Revision: 1
# Processed by: cddbd v1.5.2PL0 Copyright (c) Steve Scherf et al.
# Submitted via: audiograbber 1.83.01
#
DISCID=d10d710f
DTITLE=Ray Ligon - Live 2004
DYEAR=2004
DGENRE=
TTITLE0=It Feels Right
TTITLE1=Mother Dear
TTITLE2=You Don't Know What it is
TTITLE3=Sweet Memories
TTITLE4=American Dream
TTITLE5=Only Time Will Tell
TTITLE6=Never Met a Girl Like You
TTITLE7=Wishing Well
TTITLE8=Heart of Thunder
TTITLE9=Your Touch
TTITLE10=Your Sweet Love
TTITLE11=Into Her Love
TTITLE12=I Appreciate You
TTITLE13=Amazing Grace
TTITLE14=In Spite Of Me
EXTD=
EXTT0=
EXTT1=
EXTT2=
EXTT3=
EXTT4=
EXTT5=
EXTT6=
EXTT7=
EXTT8=
EXTT9=
EXTT10=
EXTT11=
EXTT12=
EXTT13=
EXTT14=
PLAYORDER=
